<svg width="1276" height="355" xmlns="http://www.w3.org/2000/svg" xmlns:xlink="http://www.w3.org/1999/xlink" overflow="hidden"><defs><clipPath id="clip0"><rect x="36" y="128" width="1276" height="355"/></clipPath></defs><g clip-path="url(#clip0)" transform="translate(-36 -128)"><path d="M648.108 316.125C629.549 316.125 621.353 330.836 621.353 344.246 621.353 357.656 629.353 372.163 648.108 372.163 667.103 372.163 675.094 358.316 675.094 344.246 675.094 330.836 666.89 316.125 648.108 316.125ZM894.997 315.733C879.486 315.688 866.971 326.292 866.971 344.032L866.936 344.05C866.936 361.791 879.451 372.18 894.997 372.18 912.481 372.18 923.272 358.547 923.272 345.137 923.272 329.767 913.556 315.733 894.997 315.733ZM708.355 290.588 743.322 290.588 758.646 329.749 771.144 365.017 783.659 329.749 799.018 290.588 833.95 290.588 788.192 398.128 754.086 398.128ZM1079.59 289.296 1111.1 289.296 1111.1 351.829C1110.99 357.185 1113.1 362.345 1116.93 366.086 1120.73 369.951 1125.96 372.067 1131.38 371.931 1137.12 372.046 1142.68 369.954 1146.93 366.086 1151.08 362.529 1153.45 357.307 1153.4 351.829L1153.4 289.296 1184.78 289.296 1185 397.477C1185 413.926 1179.67 427.125 1169.01 437.075 1158.34 447.025 1144.17 452 1126.49 452 1113.68 452 1102.24 449.766 1092.17 445.299L1092.17 415.218C1102.1 422.435 1113.69 426.041 1126.92 426.035 1134.7 426.035 1141.07 423.585 1146.03 418.684 1150.99 413.783 1153.47 406.714 1153.47 397.477L1153.47 386.446C1144.69 395.244 1134.32 399.642 1122.36 399.642 1110.91 399.854 1099.9 395.219 1092.03 386.874 1083.73 378.367 1079.59 367.972 1079.59 355.687ZM891.717 288.244C905.05 288.244 917.618 293.439 923.227 302.955L924.347 290.588 953.484 290.588 953.484 397.513 925.432 397.513 923.654 384.094C916.543 395.348 901.21 399.678 890.846 399.892 858.901 400.106 835.808 379.336 835.808 344.068 835.808 308.587 860.198 287.808 891.717 288.244ZM648.108 288.209C683.724 288.209 706.604 312.008 706.604 344.246 706.604 376.484 684.382 399.856 648.108 399.856 612.065 399.856 589.834 376.493 589.834 344.246 589.834 312.008 612.714 288.209 648.108 288.209ZM1019.37 287.594C1035.77 287.594 1048.95 291.71 1060.17 301.441L1044.82 320.883C1036.82 315.252 1029.28 313.087 1019.57 313.087 1009.42 313.087 1004.24 316.767 1004.24 321.997 1004.24 327.842 1009.63 331.086 1020 331.308 1040.93 331.95 1066.22 336.28 1066.4 365.703 1066.62 383.016 1053.67 401.629 1019.78 401.629 1004.02 401.629 987.838 398.591 969.706 383.452L983.092 361.381C996.256 372.198 1008.99 374.577 1020.21 374.791 1029.28 375.014 1036.4 371.334 1036.21 365.703 1036.21 360.731 1032.55 356.623 1018.08 356.186 998.22 355.295 973.403 347.098 973.403 321.997 973.403 297.77 996.282 287.594 1019.37 287.594ZM1268.7 287.13C1281.36 287.13 1291.57 290.953 1299.35 298.598 1307.12 306.243 1311.01 316.413 1311 329.108L1311 397.477 1279.49 397.477 1279.49 333.001C1279.49 327.518 1277.62 323.084 1273.88 319.698 1270.14 316.312 1265.33 314.616 1259.45 314.61 1253.67 314.455 1248.06 316.55 1243.79 320.455 1239.69 324.042 1237.36 329.254 1237.43 334.712L1237.43 397.459 1205.92 397.459 1205.92 289.296 1234.18 289.296 1235.96 301.842C1244.83 292.034 1255.75 287.13 1268.7 287.13ZM434 246 462.923 246 539.116 344.469 536.956 296.861 536.956 246.018 570.849 246.018 570.849 397.495 541.925 397.495 466.808 300.541 468.105 350.305 468.105 397.477 434 397.477Z" fill="#FFFFFF" fill-rule="evenodd"/><path d="M310.817 209.132 357 258.567 356.849 453.131C356.834 469.631 343.46 483 326.967 483L185.11 483 185.11 483C174.227 483.009 163.824 478.517 156.366 470.588L139.078 452.143C134.166 446.907 132.342 439.486 134.266 432.568L161.187 335.584C163.392 327.639 174.633 327.541 176.981 335.451L202.638 422.087C205.222 430.811 213.234 436.795 222.328 436.795L290.282 436.795C301.623 436.795 310.817 427.597 310.817 416.25ZM67.0328 129 208.89 129C219.781 128.999 230.185 133.508 237.634 141.457L254.905 159.857C259.819 165.091 261.643 172.514 259.716 179.432L232.796 276.415C230.59 284.361 219.349 284.459 217.01 276.549L191.353 189.913C188.764 181.193 180.755 175.21 171.663 175.205L103.7 175.205C92.366 175.215 83.1831 184.41 83.1831 195.75L83.1831 402.868 37 353.433 37.1512 158.869C37.166 142.369 50.5401 129 67.0328 129Z" fill="#F9423A" fill-rule="evenodd"/></g></svg>